<svg xmlns="http://www.w3.org/2000/svg" version="1.1" xmlns:xlink="http://www.w3.org/1999/xlink" xmlns:svgjs="http://svgjs.dev/svgjs" width="2000" height="2250" viewBox="0 0 2000 2250"><g transform="matrix(1,0,0,1,0.00022954974565436714,0)"><svg viewBox="0 0 320 360" data-background-color="#1f1c1c" preserveAspectRatio="xMidYMid meet" height="2250" width="2000" xmlns="http://www.w3.org/2000/svg" xmlns:xlink="http://www.w3.org/1999/xlink"><g id="tight-bounds" transform="matrix(1,0,0,1,-0.00003672795929787753,0)"><svg viewBox="0 0 320 360" height="360" width="320"><g><svg></svg></g><g><svg viewBox="0 0 320 360" height="360" width="320"><g><path transform="translate(-32.1528,-12.1528) scale(3.84303,3.84303)" d="M88.492 50l1.711-2.963c2.946-5.102 1.198-11.626-3.904-14.572l-2.963-1.711v-3.422c0-5.891-4.776-10.667-10.667-10.667h-3.422l-1.711-2.963c-2.946-5.102-9.47-6.85-14.572-3.904l-2.964 1.71-2.963-1.711c-5.102-2.945-11.626-1.197-14.572 3.905l-1.711 2.963h-3.422c-5.891 0-10.667 4.776-10.667 10.667v3.422l-2.963 1.711c-5.102 2.946-6.85 9.47-3.904 14.572l1.71 2.963-1.711 2.963c-2.945 5.102-1.197 11.626 3.905 14.572l2.963 1.711v3.422c0 5.891 4.776 10.667 10.667 10.667h3.422l1.711 2.963c2.946 5.102 9.47 6.85 14.572 3.904l2.963-1.71 2.963 1.711c5.102 2.946 11.626 1.198 14.572-3.904l1.711-2.963h3.422c5.891 0 10.667-4.776 10.667-10.667v-3.422l2.963-1.711c5.102-2.946 6.85-9.47 3.904-14.572zM85.832 33.273c2.252 1.3 3.862 3.399 4.535 5.91 0.673 2.511 0.328 5.135-0.972 7.386l-1.441 2.497-4.618-7.999v-9.236zM73.72 73.72l-15.038 8.682h-17.364l-15.038-8.682-8.682-15.038v-17.364l8.682-15.038 15.038-8.682h17.364l15.038 8.682 8.682 15.038v17.364zM82.401 60.549v8.158l-7.065 4.079zM72.786 75.336l-4.079 7.065h-8.158zM57.065 83.335l-7.065 4.079-7.065-4.079zM39.451 82.401h-8.158l-4.079-7.065zM24.664 72.786l-7.065-4.079v-8.158zM16.665 57.065l-4.079-7.065 4.079-7.065zM17.599 39.451v-8.158l7.065-4.079zM27.214 24.664l4.079-7.065h8.158zM42.935 16.665l7.065-4.079 7.065 4.079zM60.549 17.599h8.158l4.079 7.065zM75.336 27.214l7.065 4.079v8.158zM83.335 42.935l4.079 7.065-4.079 7.065zM72.668 17.599c2.6 0 5.044 1.012 6.883 2.851 1.838 1.838 2.851 4.283 2.851 6.883v2.883l-7.999-4.618-4.618-7.999zM53.43 10.606c2.252-1.3 4.875-1.645 7.386-0.972 2.511 0.673 4.61 2.284 5.91 4.535l1.441 2.497h-9.236l-7.999-4.618zM33.273 14.168c1.3-2.252 3.399-3.862 5.91-4.535 2.511-0.673 5.135-0.328 7.386 0.972l2.497 1.441-7.999 4.618h-9.236zM17.599 27.332c0-2.6 1.012-5.044 2.851-6.883 1.838-1.838 4.283-2.851 6.883-2.851h2.883l-4.618 7.999-7.999 4.618zM10.606 46.57c-1.3-2.252-1.645-4.875-0.972-7.386 0.673-2.511 2.284-4.61 4.535-5.91l2.497-1.441v9.236l-4.618 7.999zM14.168 66.727c-2.252-1.3-3.862-3.399-4.535-5.91-0.673-2.511-0.328-5.135 0.972-7.386l1.441-2.497 4.618 7.999v9.236zM27.332 82.401c-2.6 0-5.044-1.012-6.883-2.851-1.838-1.838-2.851-4.283-2.851-6.883v-2.883l7.999 4.618 4.618 7.999zM46.57 89.394c-2.252 1.3-4.875 1.645-7.386 0.972-2.511-0.673-4.61-2.284-5.91-4.535l-1.441-2.497h9.236l7.999 4.618zM66.727 85.832c-1.3 2.252-3.399 3.862-5.91 4.535-2.511 0.673-5.135 0.328-7.386-0.972l-2.497-1.441 7.999-4.618h9.236zM82.401 72.668c0 2.6-1.012 5.044-2.851 6.883-1.838 1.838-4.283 2.851-6.883 2.851h-2.883l4.618-7.999 7.999-4.618zM90.367 60.816c-0.673 2.511-2.284 4.61-4.535 5.91l-2.497 1.441v-9.236l4.618-7.999 1.441 2.497c1.3 2.253 1.646 4.876 0.973 7.387z" fill="#b10dc9" fill-rule="nonzero" stroke="none" stroke-width="1" stroke-linecap="butt" stroke-linejoin="miter" stroke-miterlimit="10" stroke-dasharray="" stroke-dashoffset="0" font-family="none" font-weight="none" font-size="none" text-anchor="none" style="mix-blend-mode: normal" data-fill-palette-color="tertiary"></path></g><g transform="matrix(1,0,0,1,94.13474242825934,90)"><svg viewBox="0 0 131.7305151434813 180" height="180" width="131.7305151434813"><g><svg viewBox="0 0 223.32933959062402 305.163014678316" height="180" width="131.7305151434813"><g transform="matrix(1,0,0,1,15.664669795312008,249.57522545023903)"><svg viewBox="0 0 192 55.587789228077" height="55.587789228077" width="192"><g id="textblocktransform"><svg viewBox="0 0 192 55.587789228077" height="55.587789228077" width="192" id="textblock"><g><svg viewBox="0 0 192 55.587789228077" height="55.587789228077" width="192"><g transform="matrix(1,0,0,1,0,0)"><svg width="192" viewBox="-8.01 -52.05 251.10999999999999 72.69999999999999" height="55.587789228077" data-palette-color="#a437db"><path d="M47.66-46.53L47.66-46.53Q47.27-46.29 46.83-46.24 46.39-46.19 45.92-46.12 45.46-46.04 45.07-45.9 44.68-45.75 44.48-45.36L44.48-45.36Q43.99-45.85 43.41-46.19 42.82-46.53 42.24-46.92L42.24-46.92Q41.75-46.78 41.26-46.53 40.77-46.29 40.28-46.29L40.28-46.29Q39.94-46.29 39.6-46.53L39.6-46.53Q39.21-46.24 38.7-46.07 38.18-45.9 37.62-45.75 37.06-45.61 36.6-45.36 36.13-45.12 35.94-44.63L35.94-44.63Q35.84-44.87 35.47-44.78 35.11-44.68 35.06-45.02L35.06-45.02Q33.5-44.48 31.88-44.09 30.27-43.7 28.66-43.26 27.05-42.82 25.49-42.29 23.93-41.75 22.46-40.97L22.46-40.97Q22.41-40.92 22.41-40.82L22.41-40.82Q22.41-40.33 22.56-39.89 22.71-39.45 22.8-39.06L22.8-39.06Q21.92-36.08 21.63-33.01 21.34-29.93 20.85-26.95L20.85-26.95 20.85-26.76Q20.85-26.51 21.04-26.39 21.24-26.27 21.24-25.98L21.24-25.98 21.19-25.88Q20.95-25.73 20.85-25.46 20.75-25.2 20.75-24.9L20.75-24.9Q20.75-24.71 20.85-24.32L20.85-24.32Q20.02-21.53 19.75-18.65 19.48-15.77 19.09-12.89L19.09-12.89 18.65-9.67Q18.55-9.38 18.48-9.11 18.41-8.84 18.41-8.54L18.41-8.54Q18.41-6.98 18.63-5.49 18.85-4 18.75-2.44L18.75-2.44Q19.19-1.76 19.19-1.12L19.19-1.12Q19.19-0.88 19.17-0.63 19.14-0.39 19.09-0.15L19.09-0.15Q19.73 0.49 20.58 0.76 21.44 1.03 22.12 1.61L22.12 1.61 22.12 1.81Q22.12 2.29 21.97 2.76 21.83 3.22 21.73 3.71L21.73 3.71Q21.63 4.1 21.51 4.83 21.39 5.57 21.19 5.81L21.19 5.81Q20.95 6.15 20.48 6.42 20.02 6.69 19.58 6.69L19.58 6.69Q19.43 6.69 19.17 6.54 18.9 6.4 18.75 6.3L18.75 6.3Q18.51 6.3 18.12 6.54 17.72 6.79 17.33 6.79L17.33 6.79Q17.14 6.79 16.99 6.76 16.85 6.74 16.65 6.64L16.65 6.64Q16.46 6.15 16.09 5.79 15.72 5.42 15.23 5.08L15.23 5.08Q15.28 4.39 14.99 4.05 14.7 3.71 14.4 3.17L14.4 3.17Q14.31 2.49 14.23 1.61 14.16 0.73 13.48 0.34L13.48 0.34Q13.72 0 13.72-0.59L13.72-0.59Q13.72-0.83 13.65-1.12 13.57-1.42 13.33-1.56L13.33-1.56 13.33-1.66Q13.28-1.9 13.5-2.03 13.72-2.15 13.72-2.39L13.72-2.39 13.72-2.59Q13.38-4.15 13.38-5.86L13.38-5.86Q13.38-7.47 13.48-9.06 13.57-10.64 13.48-12.26L13.48-12.26Q13.77-12.5 13.94-13.04 14.11-13.57 14.21-14.21 14.31-14.84 14.33-15.45 14.36-16.06 14.4-16.46L14.4-16.46Q14.65-19.24 15.19-21.95 15.72-24.66 15.82-27.49L15.82-27.49Q16.06-27.88 16.11-28.52 16.16-29.15 16.16-29.86 16.16-30.57 16.26-31.25 16.36-31.93 16.65-32.42L16.65-32.42Q16.65-33.79 16.89-35.18 17.14-36.57 17.14-37.99L17.14-37.99Q17.14-38.67 16.99-39.4L16.99-39.4Q16.5-39.6 16.11-39.6L16.11-39.6Q15.58-39.6 15.01-39.38 14.45-39.16 14.21-38.72L14.21-38.72Q13.13-38.67 12.11-38.38 11.08-38.09 10.06-38.09L10.06-38.09 9.57-38.09Q9.38-38.09 9.13-38.13L9.13-38.13Q8.79-37.99 8.42-37.89 8.06-37.79 8.11-37.3L8.11-37.3Q6.59-37.16 5.15-36.67 3.71-36.18 2.29-35.62 0.88-35.06-0.56-34.57-2-34.08-3.52-33.94L-3.52-33.94Q-4.05-33.69-4.2-32.91L-4.2-32.91Q-5.27-33.01-6.01-33.45-6.74-33.89-7.71-34.28L-7.71-34.28Q-8.01-35.3-8.01-36.23L-8.01-36.23Q-8.01-37.45-7.52-38.57-7.03-39.7-5.96-40.23L-5.96-40.23Q-5.71-40.19-5.52-40.16-5.32-40.14-5.08-40.14L-5.08-40.14Q-4.3-40.14-3.52-40.43-2.73-40.72-1.9-40.72L-1.9-40.72Q-1.66-40.72-1.37-40.58L-1.37-40.58Q-1.03-40.77-0.51-40.89 0-41.02 0.46-41.14 0.93-41.26 1.32-41.5 1.71-41.75 1.81-42.19L1.81-42.19Q2.05-41.99 2.34-41.94 2.64-41.89 2.93-41.89L2.93-41.89Q3.56-41.89 4.25-42.14 4.93-42.38 5.32-42.92L5.32-42.92Q5.66-42.53 6.3-42.53L6.3-42.53Q6.98-42.53 7.64-42.9 8.3-43.26 8.94-43.26L8.94-43.26Q9.42-43.26 9.67-42.92L9.67-42.92Q10.21-43.36 10.94-43.6 11.67-43.85 12.43-44.04 13.18-44.24 13.84-44.48 14.5-44.73 14.89-45.17L14.89-45.17Q15.14-45.12 15.67-45.12L15.67-45.12Q16.5-45.12 17.26-45.34 18.02-45.56 18.8-45.75L18.8-45.75 19.82-45.85Q20.21-45.9 20.53-46.09 20.85-46.29 21.19-46.44 21.53-46.58 21.9-46.68 22.27-46.78 22.8-46.73L22.8-46.73Q23.97-47.36 25.29-47.71 26.61-48.05 27.98-48.32 29.35-48.58 30.66-48.95 31.98-49.32 33.15-50.05L33.15-50.05 33.3-50.05Q34.28-50.05 35.23-50.39 36.18-50.73 37.01-51.32L37.01-51.32Q37.16-51.27 37.3-51.27L37.3-51.27 37.65-51.27Q39.01-51.27 40.31-51.66 41.6-52.05 43.02-52.05L43.02-52.05Q43.85-52.05 44.34-51.83 44.82-51.61 45.21-51.29 45.61-50.98 46.04-50.68 46.48-50.39 47.17-50.24L47.17-50.24Q47.61-49.41 47.61-48.46 47.61-47.51 47.66-46.53ZM63.67-28.27L63.67-28.27Q63.38-27.83 63.33-27.29 63.28-26.76 63.28-26.32L63.28-26.32Q63.28-25.73 63.3-25.17 63.33-24.61 63.33-24.07L63.33-24.07 63.33-23.34Q63.23-23 63.03-22.66 62.84-22.31 62.74-21.97L62.74-21.97Q62.06-20.17 62.06-18.36L62.06-18.36 62.06-18.26Q61.81-17.68 61.59-17.19 61.37-16.7 61.18-16.24 60.98-15.77 60.89-15.26 60.79-14.75 60.84-14.06L60.84-14.06Q60.15-12.35 59.03-10.96 57.91-9.57 56.83-8.11L56.83-8.11Q55.81-7.71 54.95-7.08 54.1-6.45 53.32-5.66L53.32-5.66Q51.8-5.18 50.34-4.54 48.87-3.91 47.7-2.83L47.7-2.83Q46.77-2.73 45.85-2.54 44.92-2.34 44.04-1.95L44.04-1.95 43.45-1.95Q43.02-1.95 42.82-2.15L42.82-2.15Q42.19-1.81 41.5-1.68 40.82-1.56 40.13-1.56L40.13-1.56Q39.26-1.56 38.4-1.68 37.55-1.81 36.67-1.95L36.67-1.95Q36.18-2.64 35.3-3 34.42-3.37 33.74-3.71L33.74-3.71Q32.32-5.66 31.69-7.5 31.05-9.33 30.37-11.62L30.37-11.62Q30.47-12.3 30.71-12.96 30.95-13.62 30.91-14.4L30.91-14.4Q31.78-16.94 33.23-19.02 34.67-21.09 36.52-23L36.52-23Q36.52-23.29 36.64-23.49 36.77-23.68 36.67-24.07L36.67-24.07Q36.72-24.02 36.86-24.02L36.86-24.02Q37.25-24.02 37.35-24.24 37.45-24.46 37.4-24.76L37.4-24.76Q39.16-25.88 40.6-27.34 42.04-28.81 43.89-29.79L43.89-29.79Q44.04-30.22 44.38-30.52 44.72-30.81 44.92-31.2L44.92-31.2Q46.48-31.64 47.75-32.52 49.02-33.4 50.44-34.08L50.44-34.08Q51.22-34.52 51.93-34.69 52.63-34.86 53.46-35.06L53.46-35.06Q53.76-35.16 54-35.21 54.25-35.25 54.54-35.25L54.54-35.25Q55.42-35.25 56.25-34.94 57.08-34.62 57.96-34.62L57.96-34.62Q58.2-34.62 58.37-34.64 58.54-34.67 58.74-34.72L58.74-34.72Q59.57-33.69 60.84-33.15L60.84-33.15Q61.13-32.42 61.55-31.88 61.96-31.35 62.4-30.83 62.84-30.32 63.21-29.71 63.57-29.1 63.67-28.27ZM58.79-25.73L58.79-25.73Q58.79-25.98 58.74-26.17L58.74-26.17Q58.25-26.32 57.81-26.56 57.37-26.81 56.83-26.81L56.83-26.81Q56.49-26.81 56.15-26.66L56.15-26.66Q56.1-27 55.88-27.15 55.66-27.29 55.39-27.42 55.12-27.54 54.86-27.61 54.59-27.69 54.39-27.88L54.39-27.88Q54.25-28.27 54.07-28.69 53.9-29.1 53.46-29.3L53.46-29.3Q53.02-28.86 52.44-28.59 51.85-28.32 51.24-28.08 50.63-27.83 50.07-27.49 49.51-27.15 49.12-26.66L49.12-26.66 48.24-26.66Q47.95-26.12 47.41-25.85 46.87-25.59 46.48-25.1L46.48-25.1Q45.7-24.71 45.04-24.15 44.38-23.58 43.75-22.97 43.11-22.36 42.5-21.73 41.89-21.09 41.21-20.56L41.21-20.56Q40.57-19.19 39.82-18.19 39.06-17.19 38.4-16.16 37.74-15.14 37.28-13.94 36.81-12.74 36.81-10.99L36.81-10.99 36.81-10.5Q36.81-10.25 36.86-10.01L36.86-10.01Q37.5-9.33 37.91-8.54 38.33-7.76 39.3-7.42L39.3-7.42Q40.28-7.03 41.38-7.08 42.48-7.13 43.5-6.84L43.5-6.84Q45.85-7.28 48.02-8.28 50.19-9.28 52.15-10.69L52.15-10.69Q52.44-10.94 52.83-11.21 53.22-11.47 53.46-11.77L53.46-11.77Q53.71-12.01 53.88-12.3 54.05-12.6 54.25-12.84L54.25-12.84Q54.64-13.48 55.12-14.11 55.61-14.75 56.15-15.28L56.15-15.28Q56.39-16.36 56.78-17.36 57.18-18.36 57.57-19.34 57.96-20.31 58.23-21.34 58.49-22.36 58.49-23.49L58.49-23.49Q58.49-23.73 58.47-24.02 58.44-24.32 58.4-24.56L58.4-24.56Q58.79-25.1 58.79-25.73ZM103.66-34.42L103.66-34.42Q103.66-33.98 103.46-33.59L103.46-33.59 103.12-32.86Q102.97-32.52 102.83-32.13 102.68-31.74 102.73-31.2L102.73-31.2Q102.05-30.42 101.36-29.69 100.68-28.96 100.14-28.03L100.14-28.03Q99.6-28.08 99.34-27.78 99.07-27.49 98.92-27L98.92-27Q97.9-26.66 97.11-25.95 96.33-25.24 95.75-24.41L95.75-24.41Q93.16-23.34 90.91-21.78 88.67-20.21 86.81-18.12L86.81-18.12Q87.69-18.12 88.54-17.92 89.4-17.72 90.25-17.5 91.11-17.29 91.94-17.11 92.77-16.94 93.65-17.04L93.65-17.04Q94.28-16.46 95.09-16.06 95.89-15.67 96.7-15.33 97.5-14.99 98.26-14.55 99.02-14.11 99.6-13.48L99.6-13.48Q99.6-13.38 99.58-13.31 99.56-13.23 99.56-13.13L99.56-13.13Q99.56-12.74 99.75-12.38 99.95-12.01 99.95-11.62L99.95-11.62Q99.7-11.23 99.51-10.79 99.31-10.35 99.04-10.01 98.77-9.67 98.43-9.42 98.09-9.18 97.5-9.13L97.5-9.13Q97.26-8.3 96.72-7.84 96.19-7.37 95.53-7.01 94.87-6.64 94.23-6.27 93.6-5.91 93.16-5.32L93.16-5.32Q91.69-4.98 90.3-4.37 88.91-3.76 87.84-2.64L87.84-2.64Q87.1-2.54 86.35-2.42 85.59-2.29 84.86-2.29L84.86-2.29Q83.83-2.29 83.2-2.71 82.56-3.13 82.47-4.25L82.47-4.25Q82.61-4.59 82.91-4.83L82.91-4.83 83.54-5.32Q83.88-5.57 84.15-5.83 84.42-6.1 84.57-6.49L84.57-6.49Q84.66-6.49 84.81-6.47 84.96-6.45 85.1-6.45L85.1-6.45Q85.69-6.45 86.03-6.69 86.37-6.93 86.69-7.18 87.01-7.42 87.4-7.62 87.79-7.81 88.42-7.76L88.42-7.76Q88.76-8.4 89.45-8.72 90.13-9.03 90.86-9.3 91.6-9.57 92.26-9.94 92.91-10.3 93.16-11.04L93.16-11.04Q92.91-11.43 92.52-11.65 92.13-11.87 91.65-12.01L91.65-12.01 90.72-12.3Q90.28-12.45 89.94-12.65L89.94-12.65Q89.4-12.5 88.91-12.5L88.91-12.5Q87.89-12.5 86.91-12.7 85.93-12.89 84.91-12.89L84.91-12.89Q83.98-12.89 83.3-12.65L83.3-12.65Q83.05-12.7 82.78-12.79 82.51-12.89 82.27-12.99L82.27-12.99Q81.15-12.55 79.93-12.55L79.93-12.55 76.75-12.55Q76.36-12.55 75.97-12.45L75.97-12.45Q75.43-11.47 75.43-10.35L75.43-10.35Q75.43-9.52 75.68-8.76 75.92-8.01 76.17-7.18L76.17-7.18Q77.14-6.3 77.97-5.1 78.8-3.91 78.8-2.49L78.8-2.49Q78.8-2.15 78.75-1.95L78.75-1.95Q78.27-2.29 77.49-2.29L77.49-2.29Q76.8-2.29 76.19-2.1 75.58-1.9 74.9-1.81L74.9-1.81Q74.36-2.05 73.77-2.32 73.19-2.59 72.65-2.98L72.65-2.98Q72.26-3.81 71.87-4.57 71.48-5.32 70.89-6.01L70.89-6.01 70.89-6.2Q70.89-7.91 70.62-9.57 70.36-11.23 70.36-12.94L70.36-12.94Q70.36-13.72 70.43-14.53 70.5-15.33 70.89-16.02L70.89-16.02Q70.75-17.19 70.75-18.46L70.75-18.46Q70.75-21 71.04-23.54 71.33-26.07 71.33-28.71L71.33-28.71Q71.33-29.25 71.31-29.79 71.28-30.32 71.24-30.86L71.24-30.86 71.04-30.86Q70.41-30.86 69.82-30.69 69.23-30.52 68.65-30.32 68.06-30.13 67.43-29.96 66.79-29.79 66.16-29.79L66.16-29.79Q65.77-29.59 65.52-29.39 65.28-29.2 65.03-29.05 64.79-28.91 64.47-28.81 64.16-28.71 63.72-28.76L63.72-28.76Q63.18-28.42 62.86-28.25 62.54-28.08 61.96-27.88L61.96-27.88Q61.66-27.78 61.47-27.59L61.47-27.59 61.08-27.25Q60.88-27.1 60.64-26.95 60.4-26.81 60-26.81L60-26.81Q59.66-26.81 59.52-26.86L59.52-26.86Q59.22-27.1 59-27.44 58.78-27.78 58.56-28.1 58.34-28.42 58.08-28.69 57.81-28.96 57.42-29.1L57.42-29.1Q57.61-29.35 57.59-29.52 57.56-29.69 57.56-29.93L57.56-29.93Q57.56-30.08 57.61-30.13L57.61-30.13Q57.86-31.01 58.49-31.52 59.13-32.03 59.91-32.35 60.69-32.67 61.49-32.91 62.3-33.15 62.98-33.5L62.98-33.5Q64.89-33.45 66.45-33.86 68.01-34.28 69.67-35.06L69.67-35.06Q69.97-34.91 70.26-34.91L70.26-34.91Q70.5-34.91 70.75-34.96L70.75-34.96 71.24-35.06Q71.82-35.55 72.5-35.69 73.19-35.84 73.87-35.94 74.56-36.04 75.19-36.16 75.83-36.28 76.31-36.67L76.31-36.67 76.51-36.67Q77.68-36.67 78.88-37.06 80.07-37.45 81.2-37.35L81.2-37.35Q82.17-37.89 83-38.04 83.83-38.18 84.91-38.18L84.91-38.18Q85.15-38.18 85.49-38.4 85.83-38.62 86.32-38.62L86.32-38.62Q86.42-38.62 86.49-38.6 86.57-38.57 86.66-38.57L86.66-38.57Q87.1-38.57 87.28-38.87 87.45-39.16 88.18-39.16L88.18-39.16Q88.52-39.16 88.81-39.14 89.11-39.11 89.4-39.11L89.4-39.11Q89.74-39.11 89.84-39.38 89.94-39.65 90.28-39.6L90.28-39.6Q90.42-39.4 90.77-39.43 91.11-39.45 91.3-39.45L91.3-39.45Q91.65-39.45 91.69-39.26L91.69-39.26Q92.48-39.75 93.43-39.89 94.38-40.04 95.26-40.04L95.26-40.04Q95.6-40.04 95.94-40.01 96.28-39.99 96.67-39.94L96.67-39.94Q97.11-40.23 97.7-40.23L97.7-40.23Q98.04-40.23 98.8-39.94 99.56-39.65 100.39-39.26 101.22-38.87 101.9-38.43 102.58-37.99 102.73-37.7L102.73-37.7Q102.83-37.6 102.85-37.26 102.88-36.91 102.97-36.67L102.97-36.67Q103.22-36.08 103.44-35.57 103.66-35.06 103.66-34.42ZM98.24-33.89L98.24-33.89Q98.24-33.98 98.21-34.11 98.19-34.23 98.19-34.33L98.19-34.33Q97.94-34.62 97.53-34.77 97.11-34.91 96.65-35.01 96.19-35.11 95.72-35.18 95.26-35.25 94.92-35.4L94.92-35.4Q93.89-35.06 92.67-35.06L92.67-35.06Q91.55-35.06 90.67-35.4L90.67-35.4Q90.23-34.96 89.55-34.72 88.86-34.47 88.11-34.35 87.35-34.23 86.59-34.2 85.83-34.18 85.25-34.18L85.25-34.18Q85.05-34.18 84.57-33.89 84.08-33.59 83.69-33.59L83.69-33.59Q83.39-33.59 83.15-33.84L83.15-33.84Q82.71-33.5 81.93-33.25 81.15-33.01 80.32-32.84 79.49-32.67 78.63-32.47 77.78-32.28 77.19-32.08L77.19-32.08Q76.61-30.81 76.56-29.32 76.51-27.83 76.51-26.42L76.51-26.42Q76.51-25.59 76.41-24.8 76.31-24.02 76.31-23.19L76.31-23.19Q76.31-22.8 76.36-22.39 76.41-21.97 76.66-21.58L76.66-21.58Q76.26-21.29 76.14-20.83 76.02-20.36 76.02-19.92L76.02-19.92Q76.02-19.38 76.12-18.95 76.22-18.51 76.31-18.12L76.31-18.12Q77.88-18.26 79.17-18.7 80.46-19.14 81.61-19.78 82.76-20.41 83.83-21.24 84.91-22.07 86.08-23L86.08-23Q86.57-23.1 86.88-23.29 87.2-23.49 87.69-23.49L87.69-23.49Q87.89-24.17 88.42-24.44 88.96-24.71 89.25-25.24L89.25-25.24Q89.84-25.39 90.25-25.66 90.67-25.93 91.06-26.2 91.45-26.46 91.91-26.71 92.38-26.95 92.96-27L92.96-27Q93.79-27.98 94.7-28.96 95.6-29.93 96.82-30.52L96.82-30.52Q97.02-31.01 97.26-31.37 97.5-31.74 97.72-32.1 97.94-32.47 98.09-32.89 98.24-33.3 98.24-33.89ZM134.71-7.91L134.71-7.91Q134.51-7.18 134.07-6.69 133.64-6.2 133.07-5.81 132.51-5.42 131.88-5.1 131.24-4.79 130.66-4.39L130.66-4.39 130.02-4.39Q127.97-4.39 126.87-5.4 125.77-6.4 125.19-7.89 124.6-9.38 124.33-11.08 124.06-12.79 123.67-14.21L123.67-14.21Q123.09-13.72 122.7-13.06 122.31-12.4 121.89-11.77 121.48-11.13 120.96-10.6 120.45-10.06 119.62-9.86L119.62-9.86Q119.47-9.52 119.3-9.18 119.13-8.84 119.08-8.45L119.08-8.45Q118.01-7.86 117.13-7.08 116.25-6.3 115.37-5.47 114.49-4.64 113.59-3.88 112.69-3.13 111.56-2.64L111.56-2.64Q111.52-2.69 111.37-2.69L111.37-2.69Q110.78-2.69 110.3-2.42 109.81-2.15 109.22-2.15L109.22-2.15Q108.83-2.15 108.51-2.29 108.2-2.44 107.88-2.64 107.56-2.83 107.22-2.93 106.88-3.03 106.49-2.98L106.49-2.98Q106-3.86 105.19-4.61 104.39-5.37 104.19-6.35L104.19-6.35Q104.09-6.79 104.07-7.25 104.05-7.71 103.95-8.2L103.95-8.2Q103.8-8.94 103.56-9.69 103.31-10.45 103.17-11.23L103.17-11.23Q103.41-12.55 103.63-14.14 103.85-15.72 104.17-17.31 104.48-18.9 105.05-20.34 105.61-21.78 106.49-22.8L106.49-22.8 106.44-23.14Q106.44-23.93 106.73-24.61 107.02-25.29 107.37-25.93 107.71-26.56 107.95-27.2 108.2-27.83 108.05-28.61L108.05-28.61Q108.64-28.91 109.27-29.1 109.9-29.3 110.59-29.3L110.59-29.3Q111.22-29.3 111.76-29.1L111.76-29.1Q111.66-28.71 112.1-28.61L112.1-28.61 112.1-28.47Q112.1-27.44 111.86-26.46 111.61-25.49 111.27-24.54 110.93-23.58 110.61-22.63 110.3-21.68 110.15-20.7L110.15-20.7Q109.95-20.65 109.88-20.51 109.81-20.36 109.76-20.21 109.71-20.07 109.61-19.97 109.51-19.87 109.32-19.87L109.32-19.87Q109.03-18.16 108.71-16.48 108.39-14.79 108.39-13.09L108.39-13.09Q108.39-12.06 108.59-10.99 108.78-9.91 109.32-8.94L109.32-8.94 109.51-8.98Q110.05-8.98 110.37-8.74 110.69-8.5 111.22-8.25L111.22-8.25Q111.61-8.35 111.96-8.52 112.3-8.69 112.25-9.13L112.25-9.13Q112.88-9.18 113.32-9.45 113.76-9.72 114.1-10.06L114.1-10.06 114.84-10.74Q115.23-11.08 115.76-11.23L115.76-11.23Q115.76-11.52 115.91-11.67L115.91-11.67 116.2-11.96Q116.35-12.11 116.42-12.28 116.5-12.45 116.45-12.79L116.45-12.79Q117.03-12.84 117.35-13.09 117.67-13.33 117.94-13.65 118.21-13.96 118.45-14.31 118.69-14.65 119.08-14.89L119.08-14.89Q119.43-15.63 120.04-16.85 120.65-18.07 121.26-19.38 121.87-20.7 122.33-21.9 122.8-23.1 122.8-23.73L122.8-23.73Q122.8-23.97 122.67-24.17 122.55-24.37 122.6-24.61L122.6-24.61 122.6-24.76Q122.99-25.24 123.31-25.83 123.63-26.42 123.99-26.95 124.36-27.49 124.8-27.93 125.24-28.37 125.92-28.61L125.92-28.61Q126.7-28.37 127.51-28.27 128.31-28.17 129.05-27.88L129.05-27.88Q129.09-26.66 129.29-25.05 129.48-23.44 129.97-22.31L129.97-22.31Q129.97-21.68 129.95-21.09 129.92-20.51 129.92-19.92L129.92-19.92Q129.92-18.95 130-17.92 130.07-16.89 130.31-16.02L130.31-16.02Q129.97-15.28 129.97-14.45L129.97-14.45Q129.97-13.33 130.31-12.33 130.66-11.33 130.8-10.21L130.8-10.21Q131.44-9.33 132.46-9.33L132.46-9.33Q132.71-9.33 132.88-9.38 133.05-9.42 133.24-9.52L133.24-9.52Q133.64-9.08 133.95-8.67 134.27-8.25 134.71-7.91ZM155.85-42.53L155.85-42.53Q155.85-41.55 155.61-40.65 155.36-39.75 155.21-38.77L155.21-38.77Q155.17-38.67 155.17-38.43L155.17-38.43Q155.17-38.13 155.21-37.87 155.26-37.6 155.36-37.35L155.36-37.35Q154.87-36.38 154.63-35.28 154.38-34.18 154.19-33.06L154.19-33.06 153.8-30.81Q153.6-29.69 153.26-28.61L153.26-28.61 153.26-28.47Q153.26-28.22 153.38-28.03 153.51-27.83 153.51-27.59L153.51-27.59 153.51-27.39Q152.87-25.34 152.53-23.17 152.19-21 151.41-19.14L151.41-19.14Q151.5-18.65 151.5-18.41L151.5-18.41Q151.5-17.87 151.38-17.46 151.26-17.04 151.06-16.7L151.06-16.7 150.72-16.06Q150.58-15.77 150.48-15.43L150.48-15.43Q150.43-15.23 150.43-15.04L150.43-15.04 150.43-14.65Q150.38-13.53 150.33-12.7 150.28-11.87 149.65-10.89L149.65-10.89Q149.6-9.62 149.38-8.45 149.16-7.28 148.77-6.05L148.77-6.05Q148.53-5.08 148.18-4.1 147.84-3.13 147.7-2.15L147.7-2.15Q147.6-1.66 147.67-0.95 147.74-0.24 147.74 0.29L147.74 0.29Q147.74 1.42 147.67 2.51 147.6 3.61 147.35 4.64L147.35 4.64Q147.5 5.37 147.89 5.98 148.28 6.59 148.38 7.32L148.38 7.32Q148.53 7.47 148.67 7.47L148.67 7.47Q148.77 7.47 148.89 7.42 149.01 7.37 149.16 7.37L149.16 7.37Q149.36 7.37 149.45 7.47L149.45 7.47Q149.6 7.86 149.6 8.15L149.6 8.15Q149.6 8.74 149.06 9.18L149.06 9.18Q149.11 9.47 149.11 9.67L149.11 9.67 149.11 10.16Q149.11 10.5 149.04 11.04 148.96 11.57 148.48 11.57L148.48 11.57Q148.23 11.57 148.26 11.3 148.28 11.04 148.04 10.94L148.04 10.94Q147.74 11.04 147.55 11.04L147.55 11.04Q147.16 11.04 146.91 10.89L146.91 10.89 146.43 10.6Q146.18 10.45 145.91 10.33 145.64 10.21 145.25 10.25L145.25 10.25Q144.86 9.52 144.4 8.86 143.94 8.2 143.35 7.67L143.35 7.67Q143.01 6.49 142.93 5.25 142.86 4 142.42 2.88L142.42 2.88Q142.47 2.83 142.57 2.59L142.57 2.59 142.76 2.1Q142.86 1.86 142.93 1.61 143.01 1.37 143.01 1.27L143.01 1.27Q143.01 0.98 142.91 0.76 142.81 0.54 142.76 0.29L142.76 0.29Q143.11-0.83 143.2-2.15 143.3-3.47 143.84-4.44L143.84-4.44Q143.89-4.93 143.94-5.59 143.98-6.25 144.11-6.86 144.23-7.47 144.45-8.03 144.67-8.59 145.11-8.98L145.11-8.98Q145.01-9.23 144.99-9.55 144.96-9.86 144.96-10.11L144.96-10.11Q144.96-11.28 145.23-12.38 145.5-13.48 145.84-14.6L145.84-14.6Q145.94-14.94 146.06-15.28 146.18-15.63 146.28-16.02L146.28-16.02Q146.33-16.11 146.3-16.21 146.28-16.31 146.28-16.41L146.28-16.41Q146.28-16.99 146.13-17.53L146.13-17.53Q146.43-17.72 146.52-18.04 146.62-18.36 146.69-18.73 146.77-19.09 146.87-19.43 146.96-19.78 147.21-20.02L147.21-20.02 147.21-20.26Q147.21-21.97 147.7-23.61 148.18-25.24 148.57-26.86L148.57-26.86 148.57-27.05Q148.57-27.25 148.48-27.34 148.38-27.44 148.38-27.64L148.38-27.64 148.38-27.73Q148.48-28.17 148.62-28.59 148.77-29 148.87-29.44L148.87-29.44Q149.11-30.52 149.18-31.59 149.26-32.67 149.65-33.69L149.65-33.69Q149.55-34.08 149.55-34.47L149.55-34.47 149.55-35.25Q149.55-36.38 149.67-37.43 149.79-38.48 150.04-39.55L150.04-39.55Q150.14-39.94 150.31-40.58 150.48-41.21 150.48-41.55L150.48-41.55Q150.48-42.14 150.33-42.75 150.19-43.36 150.19-43.95L150.19-43.95Q150.19-44.24 150.23-44.53 150.28-44.82 150.48-45.07L150.48-45.07Q150.14-45.7 150.14-46.53L150.14-46.53Q150.14-47.22 150.33-47.92 150.53-48.63 151.02-49.12L151.02-49.12 152.48-49.12Q153.16-49.12 153.85-48.93 154.53-48.73 154.87-48.05L154.87-48.05Q154.97-47.9 155.09-47.53 155.21-47.17 155.34-46.75 155.46-46.34 155.56-45.97 155.65-45.61 155.65-45.41L155.65-45.41Q155.65-44.82 155.36-44.34L155.36-44.34Q155.7-43.95 155.78-43.48 155.85-43.02 155.85-42.53ZM215.08-0.24L215.08-0.24Q214.78 0.15 214.34 0.29 213.9 0.44 213.46 0.54 213.02 0.63 212.56 0.76 212.1 0.88 211.76 1.17L211.76 1.17Q211.66 1.22 211.63 1.27 211.61 1.32 211.51 1.32L211.51 1.32Q211.36 1.32 211.24 1.1 211.12 0.88 210.88 0.78L210.88 0.78Q209.61 1.46 208.14 1.98 206.68 2.49 205.24 3.05 203.8 3.61 202.43 4.27 201.06 4.93 200.04 5.91L200.04 5.91Q199.26 6.01 198.45 6.27 197.64 6.54 197.25 7.32L197.25 7.32 197.11 7.32Q196.91 7.32 196.81 7.2 196.72 7.08 196.52 7.08L196.52 7.08Q196.18 7.08 196.08 7.28 195.98 7.47 195.96 7.69 195.93 7.91 195.89 8.11 195.84 8.3 195.59 8.3L195.59 8.3Q195.5 8.3 195.4 8.13 195.3 7.96 194.91 8.01L194.91 8.01Q193.1 8.98 191.15 9.99 189.2 10.99 187.78 12.55L187.78 12.55Q187.68 12.45 187.54 12.45L187.54 12.45Q187.44 12.45 187.39 12.45L187.39 12.45 187.34 12.5Q187.24 12.5 187.19 12.45 187.15 12.4 187.1 12.4L187.1 12.4Q185.97 13.38 184.73 14.18 183.48 14.99 182.21 15.77 180.94 16.55 179.72 17.36 178.5 18.16 177.43 19.19L177.43 19.19Q176.75 19.24 176.06 19.48 175.38 19.73 174.72 19.97 174.06 20.21 173.38 20.43 172.69 20.65 172.01 20.65L172.01 20.65Q170.74 20.65 169.91 19.53L169.91 19.53Q169.76 19.63 169.64 19.68 169.52 19.73 169.37 19.73L169.37 19.73Q168.98 19.73 168.66 19.41 168.35 19.09 167.81 19.19L167.81 19.19Q167.18 18.51 166.91 17.46 166.64 16.41 166.25 15.53L166.25 15.53Q166.34 13.62 166.91 11.84 167.47 10.06 167.61 8.15L167.61 8.15Q168.05 7.71 168.3 7.15 168.54 6.59 168.76 5.98 168.98 5.37 169.23 4.79 169.47 4.2 169.91 3.81L169.91 3.81Q170.2 2.34 170.89 1.03 171.57-0.29 171.81-1.81L171.81-1.81Q172.2-2.05 172.47-2.39 172.74-2.73 173.08-3.03L173.08-3.03 173.08-3.32Q173.08-3.71 172.89-3.91L172.89-3.91Q173.23-4.79 173.64-5.57 174.06-6.35 174.45-7.13 174.84-7.91 175.13-8.74 175.43-9.57 175.52-10.55L175.52-10.55Q175.92-10.89 176.11-11.4 176.31-11.91 176.48-12.43 176.65-12.94 176.87-13.38 177.09-13.82 177.62-14.06L177.62-14.06Q177.58-14.16 177.58-14.31L177.58-14.31Q177.58-14.79 177.84-15.19 178.11-15.58 178.11-16.02L178.11-16.02Q178.11-16.26 177.97-16.5L177.97-16.5Q178.94-18.55 179.87-20.53 180.8-22.51 181.29-24.76L181.29-24.76Q181.77-25 181.87-25.49 181.97-25.98 182.31-26.37L182.31-26.37 182.31-26.61Q182.31-27.44 182.68-28.47 183.04-29.49 183.58-30.18L183.58-30.18Q183.83-31.88 184.14-33.76 184.46-35.64 185.14-37.21L185.14-37.21Q185.05-37.55 184.88-37.89 184.7-38.23 184.61-38.62L184.61-38.62Q183.39-37.94 181.82-37.4L181.82-37.4Q181.53-37.3 181.19-37.23 180.85-37.16 180.6-37.01L180.6-37.01Q180.31-36.91 180.26-36.55 180.21-36.18 180.21-35.94L180.21-35.94Q179.63-35.94 179.28-35.69 178.94-35.45 178.63-35.13 178.31-34.81 177.97-34.55 177.62-34.28 177.09-34.18L177.09-34.18Q176.5-33.59 176.11-33.28 175.72-32.96 174.99-32.67L174.99-32.67Q174.74-32.57 174.5-32.28L174.5-32.28 174.01-31.69Q173.77-31.4 173.55-31.2 173.33-31.01 173.08-31.05L173.08-31.05Q172.94-30.62 172.67-30.32 172.4-30.03 172.11-29.76 171.81-29.49 171.62-29.15 171.42-28.81 171.47-28.27L171.47-28.27Q171.28-28.08 171.13-28.08L171.13-28.08Q170.98-28.08 170.79-28.27L170.79-28.27Q170.69-27.69 170.42-27.32 170.15-26.95 169.81-26.66 169.47-26.37 169.08-26.07 168.69-25.78 168.35-25.44L168.35-25.44Q167.91-25.49 167.59-25.63 167.27-25.78 166.93-25.93 166.59-26.07 166.22-26.15 165.86-26.22 165.32-26.17L165.32-26.17Q165.37-26.46 165.22-26.61 165.08-26.76 164.83-26.86L164.83-26.86Q164.83-27.25 164.86-27.83 164.88-28.42 164.9-29.03 164.93-29.64 165.03-30.18 165.12-30.71 165.32-31.05L165.32-31.05Q165.61-31.54 166.27-31.93 166.93-32.32 167.69-32.74 168.44-33.15 169.15-33.62 169.86-34.08 170.3-34.77L170.3-34.77Q170.35-34.72 170.5-34.72L170.5-34.72Q170.89-34.72 171.13-34.91L171.13-34.91Q171.37-35.35 171.79-35.55 172.2-35.74 172.55-36.13L172.55-36.13Q172.69-36.28 172.72-36.5 172.74-36.72 172.89-36.87L172.89-36.87Q173.03-37.01 173.45-37.16 173.86-37.3 174.11-37.55L174.11-37.55Q174.4-37.79 174.57-38.09 174.74-38.38 174.99-38.62L174.99-38.62Q175.38-38.92 175.84-39.06 176.31-39.21 176.75-39.45L176.75-39.45Q177.18-39.75 177.55-40.14 177.92-40.53 178.11-41.06L178.11-41.06Q179.09-41.5 180.02-41.97 180.94-42.43 181.82-42.97L181.82-42.97Q182.31-43.26 182.75-43.63 183.19-43.99 183.65-44.34 184.12-44.68 184.63-44.92 185.14-45.17 185.73-45.17L185.73-45.17Q186.46-45.17 186.85-44.9 187.24-44.63 187.56-44.31 187.88-43.99 188.24-43.65 188.61-43.31 189.2-43.16L189.2-43.16Q189.68-42.38 189.86-41.48 190.03-40.58 190.08-39.62 190.12-38.67 190.1-37.74 190.08-36.82 190.22-35.94L190.22-35.94Q189.93-35.11 189.54-34.33 189.15-33.54 189.15-32.67L189.15-32.67Q189.15-32.32 189.2-32.08L189.2-32.08 188.61-32.08Q188.42-30.47 187.88-28.93 187.34-27.39 186.66-25.88L186.66-25.88 185.34-22.9Q184.7-21.44 184.26-19.87L184.26-19.87Q184.17-19.43 183.92-19.36 183.68-19.29 183.58-18.95L183.58-18.95Q183.34-18.41 183.19-17.77 183.04-17.14 182.8-16.55L182.8-16.55Q182.31-15.28 181.82-14.11 181.34-12.94 180.8-11.82L180.8-11.82 180.8-11.33Q180.8-11.08 180.94-11.08L180.94-11.08Q179.38-8.94 178.84-6.2L178.84-6.2Q178.45-5.91 178.28-5.49 178.11-5.08 177.77-4.79L177.77-4.79Q177.43-3.37 176.87-2.03 176.31-0.68 175.72 0.63 175.13 1.95 174.6 3.3 174.06 4.64 173.77 6.05L173.77 6.05Q173.23 6.54 172.91 7.23 172.59 7.91 172.38 8.69 172.16 9.47 171.98 10.25 171.81 11.04 171.62 11.67L171.62 11.67 171.13 13.43 171.13 14.4Q171.13 14.65 171.08 14.94 171.03 15.23 170.79 15.33L170.79 15.33Q170.89 15.67 171.06 15.87 171.23 16.06 171.13 16.41L171.13 16.41Q171.33 16.8 171.84 16.87 172.35 16.94 172.74 17.09L172.74 17.09Q173.13 16.99 173.18 16.65 173.23 16.31 173.43 16.06L173.43 16.06Q173.86 15.48 174.77 14.79 175.67 14.11 176.72 13.38 177.77 12.65 178.77 11.99 179.77 11.33 180.41 10.79L180.41 10.79 181.29 10.79Q183.04 9.67 184.8 8.62 186.56 7.57 188.46 6.74L188.46 6.74Q188.95 6.1 189.66 5.76 190.37 5.42 191.13 5.1 191.88 4.79 192.59 4.44 193.3 4.1 193.74 3.47L193.74 3.47Q194.27 3.37 194.91 3.22 195.54 3.08 195.84 2.54L195.84 2.54 196.03 2.54Q196.18 2.54 196.33 2.61 196.47 2.69 196.52 2.88L196.52 2.88Q196.86 2.78 196.94 2.44 197.01 2.1 197.25 1.86L197.25 1.86Q198.67 1.32 200.13 0.73 201.6 0.15 203.01-0.59L203.01-0.59Q203.7-0.59 204.55-0.78 205.41-0.98 205.85-1.66L205.85-1.66Q205.94-1.61 206.09-1.61L206.09-1.61Q206.63-1.61 207.14-1.78 207.65-1.95 208.19-2.17 208.73-2.39 209.26-2.59 209.8-2.78 210.39-2.83L210.39-2.83 210.49-2.83Q210.58-2.83 210.56-3.1 210.53-3.37 210.53-3.42L210.53-3.42Q210.53-3.61 210.73-3.56L210.73-3.56Q210.88-3.61 211.22-3.61L211.22-3.61Q211.76-3.61 212.22-3.39 212.68-3.17 213.12-2.88 213.56-2.59 214-2.27 214.44-1.95 214.93-1.81L214.93-1.81Q214.83-1.42 214.83-1.17L214.83-1.17Q214.83-0.93 214.9-0.71 214.98-0.49 215.08-0.24ZM243.1-18.95L243.1-18.95Q243.1-17.82 242.81-16.87 242.51-15.92 242.17-14.84L242.17-14.84 241.93-14.06Q241.59-13.43 240.98-12.74 240.37-12.06 239.88-11.52L239.88-11.52Q238.75-10.25 237.63-8.96 236.51-7.67 235.63-6.2L235.63-6.2 235.53-6.2Q235.39-6.2 235.26-6.1 235.14-6.01 235.04-5.88 234.95-5.76 234.85-5.69 234.75-5.62 234.56-5.66L234.56-5.66Q234.21-4.83 233.46-4.42 232.7-4 232.11-3.42L232.11-3.42Q232.07-3.03 231.92-2.76 231.77-2.49 231.77-2.15L231.77-2.15Q230.01-1.12 228.48 0.22 226.94 1.56 225.47 2.88L225.47 2.88Q224.55 3.13 223.98 3.66 223.42 4.2 222.84 4.83L222.84 4.83Q221.57 5.47 220.32 6.2 219.08 6.93 218.1 8.01L218.1 8.01Q216.98 8.3 215.98 8.94 214.98 9.57 213.95 10.21L213.95 10.21Q213.66 10.4 213.34 10.52 213.02 10.64 212.68 10.79L212.68 10.79Q212.34 10.94 212.34 11.28L212.34 11.28 212.14 11.28Q211.75 11.28 211.58 11.52 211.41 11.77 210.92 11.72L210.92 11.72Q210.39 12.26 209.7 12.55L209.7 12.55 208.33 13.18Q207.65 13.53 206.99 13.89 206.33 14.26 205.84 14.84L205.84 14.84Q205.01 14.94 204.36 15.33 203.7 15.72 202.87 15.72L202.87 15.72 202.67 15.72Q202.38 15.38 202.01 15.11 201.65 14.84 201.33 14.58 201.01 14.31 200.79 13.94 200.57 13.57 200.57 12.99L200.57 12.99 200.57 12.74Q202.87 11.82 204.43 10.11L204.43 10.11Q204.53 10.11 204.57 10.08 204.62 10.06 204.72 10.06L204.72 10.06Q204.97 10.06 205.16 10.13 205.36 10.21 205.55 10.21L205.55 10.21Q205.65 10.21 205.84 10.11L205.84 10.11Q206.92 9.77 207.92 9.18 208.92 8.59 209.87 7.98 210.82 7.37 211.8 6.81 212.78 6.25 213.85 5.91L213.85 5.91Q215.41 4.64 217.07 3.47 218.74 2.29 220.59 1.37L220.59 1.37Q220.74 0.98 220.96 0.76 221.18 0.54 221.08 0.1L221.08 0.1Q221.18 0.15 221.32 0.15L221.32 0.15Q221.71 0.15 221.96-0.05L221.96-0.05Q222.74-0.59 223.45-1.2 224.15-1.81 224.84-2.39L224.84-2.39Q226.3-3.66 227.82-4.98 229.33-6.3 230.89-7.42L230.89-7.42Q230.99-7.91 231.28-8.18 231.58-8.45 231.58-8.98L231.58-8.98Q232.21-9.23 232.58-9.79 232.94-10.35 233.68-10.55L233.68-10.55Q234.07-11.33 234.51-12.01 234.95-12.7 235.78-12.99L235.78-12.99Q236.07-13.77 236.44-14.4 236.8-15.04 237.12-15.65 237.44-16.26 237.68-16.94 237.92-17.63 237.92-18.6L237.92-18.6Q237.92-19.68 237.24-20.09 236.56-20.51 235.63-20.65 234.7-20.8 233.7-20.9 232.7-21 232.11-21.39L232.11-21.39Q231.82-21.34 231.89-21 231.97-20.65 231.77-20.56L231.77-20.56 231.28-20.56Q230.65-20.56 230.01-20.36L230.01-20.36 228.79-20.02Q228.21-19.87 227.57-19.73 226.94-19.58 226.3-19.63L226.3-19.63Q225.38-19.14 224.67-18.75 223.96-18.36 223.25-18.02 222.54-17.68 221.74-17.38 220.93-17.09 219.86-16.85L219.86-16.85Q219.32-16.75 219.17-16.5 219.03-16.26 218.64-16.02L218.64-16.02Q218.39-16.16 218.2-16.38 218-16.6 217.76-16.7L217.76-16.7Q217.51-16.65 217.34-16.43 217.17-16.21 217.03-15.99 216.88-15.77 216.73-15.6 216.59-15.43 216.39-15.43L216.39-15.43Q215.95-15.43 215.59-15.7 215.22-15.97 214.93-16.31 214.63-16.65 214.34-17.02 214.05-17.38 213.71-17.53L213.71-17.53Q213.9-18.02 213.9-18.53 213.9-19.04 213.85-19.48L213.85-19.48Q214.44-20.12 214.93-20.75 215.41-21.39 216.15-21.73L216.15-21.73Q217.47-23.29 218.59-24.68 219.71-26.07 220.57-27.56 221.42-29.05 221.98-30.74 222.54-32.42 222.69-34.57L222.69-34.57Q222.69-34.91 222.86-35.11 223.03-35.3 223.03-35.6L223.03-35.6Q223.03-36.08 222.86-36.43 222.69-36.77 222.47-37.04 222.25-37.3 222.08-37.6 221.91-37.89 221.96-38.38L221.96-38.38Q221.18-39.06 220.2-39.06L220.2-39.06Q219.81-39.06 219.32-38.87 218.83-38.67 218.32-38.43 217.81-38.18 217.32-37.87 216.83-37.55 216.54-37.35L216.54-37.35Q216.24-37.16 215.98-36.94 215.71-36.72 215.46-36.52L215.46-36.52Q214.34-35.55 213.29-34.62 212.24-33.69 211.26-32.67L211.26-32.67 211.26-31.74Q210.82-31.64 210.56-31.35 210.29-31.05 210.14-30.64 209.99-30.22 209.9-29.76 209.8-29.3 209.65-28.96L209.65-28.96 209.7-28.81 209.7-28.71Q209.7-28.66 209.6-28.66L209.6-28.66Q209.56-28.66 209.46-28.74 209.36-28.81 209.26-28.81L209.26-28.81 209.16-28.81Q208.77-27.69 207.87-27.1 206.97-26.51 206.04-25.98L206.04-25.98Q205.11-26.22 204.36-26.71 203.6-27.2 202.87-27.73L202.87-27.73Q202.52-28.42 202.52-29.3L202.52-29.3Q202.52-30.18 202.77-30.98 203.01-31.79 203.21-32.67L203.21-32.67Q203.94-33.25 204.43-34.03 204.92-34.81 205.43-35.6 205.94-36.38 206.55-37.04 207.16-37.7 208.14-38.04L208.14-38.04Q208.63-38.82 209.36-39.43 210.09-40.04 210.9-40.55 211.7-41.06 212.49-41.6 213.27-42.14 213.85-42.82L213.85-42.82 214.78-42.82Q214.93-43.31 215.37-43.53 215.81-43.75 216.27-43.92 216.73-44.09 217.12-44.36 217.51-44.63 217.56-45.26L217.56-45.26Q217.76-45.31 217.76-45.07L217.76-45.07Q218.2-45.21 218.74-45.21L218.74-45.21Q219.37-45.21 219.98-45.07 220.59-44.92 221.18-44.92L221.18-44.92Q221.66-44.92 222.1-45.07L222.1-45.07Q222.15-44.78 222.37-44.65 222.59-44.53 222.91-44.46 223.23-44.38 223.54-44.36 223.86-44.34 224.06-44.19L224.06-44.19Q224.01-43.7 224.37-43.63 224.74-43.55 224.94-43.31L224.94-43.31Q225.13-43.07 225.16-42.72 225.18-42.38 225.47-42.09L225.47-42.09 226.01-41.5Q226.3-41.26 226.55-40.92L226.55-40.92Q227.43-39.7 227.91-37.89 228.4-36.08 228.4-34.57L228.4-34.57Q228.4-34.47 228.31-34.01 228.21-33.54 228.16-33.45L228.16-33.45Q227.62-30.96 226.6-28.78 225.57-26.61 224.4-24.41L224.4-24.41Q224.69-24.37 224.96-24.34 225.23-24.32 225.47-24.32L225.47-24.32Q226.55-24.32 227.45-24.61 228.35-24.9 229.33-25.29L229.33-25.29Q229.82-25.15 230.4-25.15L230.4-25.15Q231.24-25.15 231.99-25.29 232.75-25.44 233.58-25.44L233.58-25.44Q234.02-25.44 234.43-25.24 234.85-25.05 235.39-25.05L235.39-25.05Q235.87-25.05 236.12-25.1L236.12-25.1Q236.9-24.71 237.8-24.32 238.71-23.93 239.56-23.49 240.41-23.05 241.17-22.49 241.93-21.92 242.51-21.19L242.51-21.19Q242.61-21.09 242.76-20.87 242.9-20.65 242.95-20.56L242.95-20.56Q243.05-20.36 243.08-19.78 243.1-19.19 243.1-18.95Z" opacity="1" transform="matrix(1,0,0,1,0,0)" fill="#a437db" class="wordmark-text-0" data-fill-palette-color="primary" id="text-0"></path></svg></g></svg></g></svg></g></svg></g><g><svg viewBox="0 0 223.32933959062402 223.32933959062402" height="223.32933959062402" width="223.32933959062402"><g><svg></svg></g><g id="icon-0"><svg viewBox="0 0 223.32933959062402 223.32933959062402" height="223.32933959062402" width="223.32933959062402"><g><path d="M0 111.665c0-61.671 49.994-111.665 111.665-111.665 61.671 0 111.665 49.994 111.664 111.665 0 61.671-49.994 111.665-111.664 111.664-61.671 0-111.665-49.994-111.665-111.664zM111.665 218.316c58.902 0 106.652-47.75 106.651-106.651 0-58.902-47.75-106.652-106.651-106.652-58.902 0-106.652 47.75-106.652 106.652 0 58.902 47.75 106.652 106.652 106.651z" data-fill-palette-color="accent" fill="#a95a9d" stroke="transparent"></path></g><g transform="matrix(1,0,0,1,53.27940751202415,44.640771766027484)"><svg viewBox="0 0 116.77052456657572 134.04779605856905" height="134.04779605856905" width="116.77052456657572"><g><svg xmlns="http://www.w3.org/2000/svg" xmlns:xlink="http://www.w3.org/1999/xlink" version="1.1" x="0" y="0" viewBox="10.1 5.2 78.4 90" enable-background="new 0 0 100 100" xml:space="preserve" height="134.04779605856905" width="116.77052456657572" class="icon-z$-0" data-fill-palette-color="accent" id="z$-0"><polygon fill-rule="evenodd" clip-rule="evenodd" fill="#a95a9d" points="88.5,28.2 68.4,59.9 68.5,22.3 " data-fill-palette-color="accent"></polygon><polygon fill-rule="evenodd" clip-rule="evenodd" fill="#a95a9d" points="49.8,5.2 67.2,38.5 34.7,19.6 " data-fill-palette-color="accent"></polygon><polygon fill-rule="evenodd" clip-rule="evenodd" fill="#a95a9d" points="67.8,38.3 67.8,22.3 60.8,24.5 " data-fill-palette-color="accent"></polygon><polygon fill-rule="evenodd" clip-rule="evenodd" fill="#a95a9d" points="88.2,73.2 50.6,71.7 83.2,52.9 " data-fill-palette-color="accent"></polygon><polygon fill-rule="evenodd" clip-rule="evenodd" fill="#a95a9d" points="69.1,60.3 82.8,52.3 77.4,47.4 " data-fill-palette-color="accent"></polygon><polygon fill-rule="evenodd" clip-rule="evenodd" fill="#a95a9d" points="48.7,95.2 31.5,61.9 63.9,80.9 " data-fill-palette-color="accent"></polygon><polygon fill-rule="evenodd" clip-rule="evenodd" fill="#a95a9d" points="50.5,72.2 64.2,80.2 65.8,73.1 " data-fill-palette-color="accent"></polygon><polygon fill-rule="evenodd" clip-rule="evenodd" fill="#a95a9d" points="10.1,72 30.5,40.4 30.1,78 " data-fill-palette-color="accent"></polygon><polygon fill-rule="evenodd" clip-rule="evenodd" fill="#a95a9d" points="30.9,62.1 30.8,78 37.8,75.8 " data-fill-palette-color="accent"></polygon><polygon fill-rule="evenodd" clip-rule="evenodd" fill="#a95a9d" points="11,27 48.5,28.9 15.8,47.3 " data-fill-palette-color="accent"></polygon><polygon fill-rule="evenodd" clip-rule="evenodd" fill="#a95a9d" points="30,40.1 16.1,47.9 21.5,52.9 " data-fill-palette-color="accent"></polygon><polygon fill-rule="evenodd" clip-rule="evenodd" fill="#a95a9d" points="48.2,28.3 34.5,20.2 32.9,27.4 " data-fill-palette-color="accent"></polygon></svg></g></svg></g></svg></g></svg></g><g></g></svg></g></svg></g></svg></g><defs></defs></svg><rect width="320" height="360" fill="none" stroke="none" visibility="hidden"></rect></g></svg></g></svg>